<mxfile host="65bd71144e">
    <diagram name="Page-1" id="KsKv0PichvT5o_xX7rDM">
        <mxGraphModel dx="1684" dy="317" grid="1" gridSize="10" guides="1" tooltips="1" connect="1" arrows="1" fold="1" page="1" pageScale="1" pageWidth="850" pageHeight="1100" math="0" shadow="0">
            <root>
                <mxCell id="0"/>
                <mxCell id="1" parent="0"/>
                <mxCell id="8FMlB73X5gDAxVy7XkIQ-1" value="" style="rounded=0;whiteSpace=wrap;html=1;fontSize=12;" parent="1" vertex="1">
                    <mxGeometry x="-100" y="30" width="1460" height="2810" as="geometry"/>
                </mxCell>
                <mxCell id="mRlZIqWXYmQuV_ElUZWs-34" style="edgeStyle=orthogonalEdgeStyle;rounded=0;orthogonalLoop=1;jettySize=auto;html=1;exitX=1;exitY=0.3333333333333333;exitDx=0;exitDy=0;exitPerimeter=0;entryX=0.5;entryY=0;entryDx=0;entryDy=0;fontSize=12;" parent="1" edge="1">
                    <mxGeometry relative="1" as="geometry">
                        <Array as="points">
                            <mxPoint x="-250" y="1069.97"/>
                            <mxPoint x="402" y="1069.97"/>
                        </Array>
                        <mxPoint x="-250" y="1613.3033333333335" as="sourcePoint"/>
                        <mxPoint x="402" y="1099.97" as="targetPoint"/>
                    </mxGeometry>
                </mxCell>
                <mxCell id="mRlZIqWXYmQuV_ElUZWs-35" style="edgeStyle=orthogonalEdgeStyle;rounded=0;orthogonalLoop=1;jettySize=auto;html=1;exitX=1;exitY=0.3333333333333333;exitDx=0;exitDy=0;exitPerimeter=0;entryX=0.5;entryY=0;entryDx=0;entryDy=0;fontSize=12;" parent="1" target="mRlZIqWXYmQuV_ElUZWs-18" edge="1">
                    <mxGeometry relative="1" as="geometry">
                        <Array as="points">
                            <mxPoint x="-250" y="1340"/>
                            <mxPoint x="405" y="1340"/>
                        </Array>
                        <mxPoint x="-250" y="1763.3333333333335" as="sourcePoint"/>
                    </mxGeometry>
                </mxCell>
                <mxCell id="8FMlB73X5gDAxVy7XkIQ-2" value="&lt;font style=&quot;font-size: 42px;&quot;&gt;Admin&lt;/font&gt;" style="shape=umlActor;verticalLabelPosition=bottom;verticalAlign=top;html=1;outlineConnect=0;fontSize=12;" parent="1" vertex="1">
                    <mxGeometry x="-640" y="1410" width="390" height="790" as="geometry"/>
                </mxCell>
                <mxCell id="8FMlB73X5gDAxVy7XkIQ-3" style="rounded=0;orthogonalLoop=1;jettySize=auto;html=1;exitX=0.5;exitY=0;exitDx=0;exitDy=0;endArrow=none;endFill=0;startArrow=classic;startFill=1;entryX=1;entryY=1;entryDx=0;entryDy=0;entryPerimeter=0;edgeStyle=orthogonalEdgeStyle;fontSize=12;" parent="1" source="8FMlB73X5gDAxVy7XkIQ-34" edge="1">
                    <mxGeometry relative="1" as="geometry">
                        <mxPoint x="-250" y="2312" as="targetPoint"/>
                        <mxPoint x="359.57359312880726" y="1283.7157287525383" as="sourcePoint"/>
                        <Array as="points">
                            <mxPoint x="402" y="1602"/>
                            <mxPoint x="-250" y="1602"/>
                        </Array>
                    </mxGeometry>
                </mxCell>
                <mxCell id="8FMlB73X5gDAxVy7XkIQ-4" style="rounded=0;orthogonalLoop=1;jettySize=auto;html=1;exitX=0.5;exitY=0;exitDx=0;exitDy=0;endArrow=none;endFill=0;startArrow=classic;startFill=1;entryX=1;entryY=1;entryDx=0;entryDy=0;entryPerimeter=0;edgeStyle=orthogonalEdgeStyle;fontSize=12;" parent="1" source="8FMlB73X5gDAxVy7XkIQ-38" edge="1">
                    <mxGeometry relative="1" as="geometry">
                        <mxPoint x="-249.00000000000045" y="1960" as="targetPoint"/>
                        <Array as="points">
                            <mxPoint x="403" y="2210"/>
                            <mxPoint x="-249" y="2210"/>
                        </Array>
                        <mxPoint x="360.57359312880726" y="1891.7157287525383" as="sourcePoint"/>
                    </mxGeometry>
                </mxCell>
                <mxCell id="8FMlB73X5gDAxVy7XkIQ-6" style="rounded=0;orthogonalLoop=1;jettySize=auto;html=1;exitX=0.5;exitY=0;exitDx=0;exitDy=0;endArrow=none;endFill=0;startArrow=classic;startFill=1;entryX=1;entryY=1;entryDx=0;entryDy=0;entryPerimeter=0;edgeStyle=orthogonalEdgeStyle;fontSize=12;" parent="1" source="8FMlB73X5gDAxVy7XkIQ-42" target="8FMlB73X5gDAxVy7XkIQ-2" edge="1">
                    <mxGeometry relative="1" as="geometry">
                        <mxPoint x="-1122" y="2200" as="targetPoint"/>
                        <mxPoint x="359.57359312880726" y="3691.715728752539" as="sourcePoint"/>
                        <Array as="points">
                            <mxPoint x="403" y="2690"/>
                            <mxPoint x="-250" y="2690"/>
                        </Array>
                    </mxGeometry>
                </mxCell>
                <mxCell id="8FMlB73X5gDAxVy7XkIQ-10" style="rounded=0;orthogonalLoop=1;jettySize=auto;html=1;exitX=0.5;exitY=0;exitDx=0;exitDy=0;endArrow=none;endFill=0;startArrow=classic;startFill=1;entryX=0.5;entryY=0;entryDx=0;entryDy=0;entryPerimeter=0;edgeStyle=orthogonalEdgeStyle;fontSize=12;" parent="1" source="8FMlB73X5gDAxVy7XkIQ-20" target="8FMlB73X5gDAxVy7XkIQ-2" edge="1">
                    <mxGeometry relative="1" as="geometry">
                        <mxPoint x="342" y="120" as="sourcePoint"/>
                        <mxPoint x="-922" y="1200" as="targetPoint"/>
                        <Array as="points">
                            <mxPoint x="402" y="50"/>
                            <mxPoint x="-457" y="50"/>
                        </Array>
                    </mxGeometry>
                </mxCell>
                <mxCell id="8FMlB73X5gDAxVy7XkIQ-11" style="rounded=0;orthogonalLoop=1;jettySize=auto;html=1;exitX=0.5;exitY=0;exitDx=0;exitDy=0;endArrow=none;endFill=0;startArrow=classic;startFill=1;entryX=0.5;entryY=0;entryDx=0;entryDy=0;entryPerimeter=0;edgeStyle=orthogonalEdgeStyle;fontSize=12;" parent="1" source="8FMlB73X5gDAxVy7XkIQ-21" target="8FMlB73X5gDAxVy7XkIQ-2" edge="1">
                    <mxGeometry relative="1" as="geometry">
                        <mxPoint x="359.57359312880726" y="211.71572875253833" as="sourcePoint"/>
                        <mxPoint x="-882" y="1240" as="targetPoint"/>
                        <Array as="points">
                            <mxPoint x="402" y="170"/>
                            <mxPoint x="-457" y="170"/>
                        </Array>
                    </mxGeometry>
                </mxCell>
                <mxCell id="8FMlB73X5gDAxVy7XkIQ-12" style="rounded=0;orthogonalLoop=1;jettySize=auto;html=1;exitX=0.5;exitY=0;exitDx=0;exitDy=0;endArrow=none;endFill=0;startArrow=classic;startFill=1;entryX=0.5;entryY=0;entryDx=0;entryDy=0;entryPerimeter=0;edgeStyle=orthogonalEdgeStyle;fontSize=12;" parent="1" source="8FMlB73X5gDAxVy7XkIQ-28" target="8FMlB73X5gDAxVy7XkIQ-2" edge="1">
                    <mxGeometry relative="1" as="geometry">
                        <mxPoint x="359.57359312880726" y="451.7157287525383" as="sourcePoint"/>
                        <mxPoint x="-872" y="1300" as="targetPoint"/>
                        <Array as="points">
                            <mxPoint x="402" y="410"/>
                            <mxPoint x="-457" y="410"/>
                        </Array>
                    </mxGeometry>
                </mxCell>
                <mxCell id="8FMlB73X5gDAxVy7XkIQ-13" style="rounded=0;orthogonalLoop=1;jettySize=auto;html=1;exitX=0.5;exitY=0;exitDx=0;exitDy=0;endArrow=none;endFill=0;startArrow=classic;startFill=1;entryX=0.5;entryY=0;entryDx=0;entryDy=0;entryPerimeter=0;edgeStyle=orthogonalEdgeStyle;fontSize=12;" parent="1" source="8FMlB73X5gDAxVy7XkIQ-29" target="8FMlB73X5gDAxVy7XkIQ-2" edge="1">
                    <mxGeometry relative="1" as="geometry">
                        <mxPoint x="359.57359312880726" y="691.7157287525383" as="sourcePoint"/>
                        <mxPoint x="-822" y="1320" as="targetPoint"/>
                        <Array as="points">
                            <mxPoint x="402" y="650"/>
                            <mxPoint x="-457" y="650"/>
                        </Array>
                    </mxGeometry>
                </mxCell>
                <mxCell id="8FMlB73X5gDAxVy7XkIQ-14" style="rounded=0;orthogonalLoop=1;jettySize=auto;html=1;exitX=0.5;exitY=0;exitDx=0;exitDy=0;endArrow=none;endFill=0;startArrow=classic;startFill=1;entryX=1;entryY=0.3333333333333333;entryDx=0;entryDy=0;entryPerimeter=0;edgeStyle=orthogonalEdgeStyle;fontSize=12;" parent="1" source="8FMlB73X5gDAxVy7XkIQ-33" target="8FMlB73X5gDAxVy7XkIQ-2" edge="1">
                    <mxGeometry relative="1" as="geometry">
                        <mxPoint x="359.57359312880726" y="931.7157287525383" as="sourcePoint"/>
                        <mxPoint x="-812" y="1380" as="targetPoint"/>
                        <Array as="points">
                            <mxPoint x="402" y="890"/>
                            <mxPoint x="-250" y="890"/>
                        </Array>
                    </mxGeometry>
                </mxCell>
                <mxCell id="8FMlB73X5gDAxVy7XkIQ-16" style="rounded=0;orthogonalLoop=1;jettySize=auto;html=1;exitX=0.5;exitY=0;exitDx=0;exitDy=0;endArrow=none;endFill=0;startArrow=classic;startFill=1;entryX=1;entryY=1;entryDx=0;entryDy=0;entryPerimeter=0;edgeStyle=orthogonalEdgeStyle;fontSize=12;" parent="1" source="8FMlB73X5gDAxVy7XkIQ-37" edge="1">
                    <mxGeometry relative="1" as="geometry">
                        <mxPoint x="-250.00000000000023" y="1910.0000000000005" as="targetPoint"/>
                        <Array as="points">
                            <mxPoint x="402" y="1920"/>
                            <mxPoint x="-250" y="1920"/>
                        </Array>
                        <mxPoint x="359.57359312880726" y="1601.7157287525383" as="sourcePoint"/>
                    </mxGeometry>
                </mxCell>
                <mxCell id="8FMlB73X5gDAxVy7XkIQ-20" value="Login" style="ellipse;whiteSpace=wrap;html=1;fontSize=12;" parent="1" vertex="1">
                    <mxGeometry x="342" y="80" width="120" height="80" as="geometry"/>
                </mxCell>
                <mxCell id="8FMlB73X5gDAxVy7XkIQ-21" value="Manage Members" style="ellipse;whiteSpace=wrap;html=1;fontSize=12;" parent="1" vertex="1">
                    <mxGeometry x="342" y="200" width="120" height="80" as="geometry"/>
                </mxCell>
                <mxCell id="8FMlB73X5gDAxVy7XkIQ-28" value="Manage Book" style="ellipse;whiteSpace=wrap;html=1;fontSize=12;" parent="1" vertex="1">
                    <mxGeometry x="342" y="440" width="120" height="80" as="geometry"/>
                </mxCell>
                <mxCell id="8FMlB73X5gDAxVy7XkIQ-29" value="Manage Newspaper and Magazine" style="ellipse;whiteSpace=wrap;html=1;fontSize=12;" parent="1" vertex="1">
                    <mxGeometry x="342" y="680" width="120" height="80" as="geometry"/>
                </mxCell>
                <mxCell id="8FMlB73X5gDAxVy7XkIQ-33" value="Manage Loan" style="ellipse;whiteSpace=wrap;html=1;fontSize=12;" parent="1" vertex="1">
                    <mxGeometry x="342" y="920" width="120" height="80" as="geometry"/>
                </mxCell>
                <mxCell id="8FMlB73X5gDAxVy7XkIQ-34" value="Manage settings" style="ellipse;whiteSpace=wrap;html=1;fontSize=12;" parent="1" vertex="1">
                    <mxGeometry x="342" y="1624" width="120" height="80" as="geometry"/>
                </mxCell>
                <mxCell id="8FMlB73X5gDAxVy7XkIQ-37" value="Manage Categories" style="ellipse;whiteSpace=wrap;html=1;fontSize=12;" parent="1" vertex="1">
                    <mxGeometry x="342" y="1942" width="120" height="80" as="geometry"/>
                </mxCell>
                <mxCell id="8FMlB73X5gDAxVy7XkIQ-38" value="Manage Reports" style="ellipse;whiteSpace=wrap;html=1;fontSize=12;" parent="1" vertex="1">
                    <mxGeometry x="343" y="2240" width="120" height="80" as="geometry"/>
                </mxCell>
                <mxCell id="8FMlB73X5gDAxVy7XkIQ-42" value="Logout" style="ellipse;whiteSpace=wrap;html=1;fontSize=12;" parent="1" vertex="1">
                    <mxGeometry x="343" y="2720" width="120" height="80" as="geometry"/>
                </mxCell>
                <mxCell id="8FMlB73X5gDAxVy7XkIQ-207" value="View Summary Statistics" style="ellipse;whiteSpace=wrap;html=1;fontSize=12;" parent="1" vertex="1">
                    <mxGeometry x="343" y="2360" width="120" height="80" as="geometry"/>
                </mxCell>
                <mxCell id="8FMlB73X5gDAxVy7XkIQ-218" value="LMS" style="text;html=1;align=center;verticalAlign=middle;whiteSpace=wrap;rounded=0;fontSize=12;" parent="1" vertex="1">
                    <mxGeometry x="372" width="60" height="30" as="geometry"/>
                </mxCell>
                <mxCell id="8FMlB73X5gDAxVy7XkIQ-233" value="" style="endArrow=none;html=1;rounded=0;exitX=0.5;exitY=1;exitDx=0;exitDy=0;entryX=0.5;entryY=0;entryDx=0;entryDy=0;edgeStyle=orthogonalEdgeStyle;curved=1;endFill=0;startArrow=block;startFill=0;fontSize=12;" parent="1" source="8FMlB73X5gDAxVy7XkIQ-38" target="8FMlB73X5gDAxVy7XkIQ-207" edge="1">
                    <mxGeometry width="50" height="50" relative="1" as="geometry">
                        <mxPoint x="403" y="2320" as="sourcePoint"/>
                        <mxPoint x="68" y="2160" as="targetPoint"/>
                    </mxGeometry>
                </mxCell>
                <mxCell id="8FMlB73X5gDAxVy7XkIQ-234" value="" style="edgeLabel;html=1;align=center;verticalAlign=middle;resizable=0;points=[];fontSize=12;" parent="8FMlB73X5gDAxVy7XkIQ-233" vertex="1" connectable="0">
                    <mxGeometry x="-0.04" relative="1" as="geometry">
                        <mxPoint as="offset"/>
                    </mxGeometry>
                </mxCell>
                <mxCell id="8FMlB73X5gDAxVy7XkIQ-257" value="update Password" style="ellipse;whiteSpace=wrap;html=1;fontSize=12;" parent="1" vertex="1">
                    <mxGeometry x="580" y="330" width="120" height="80" as="geometry"/>
                </mxCell>
                <mxCell id="8FMlB73X5gDAxVy7XkIQ-258" value="Add a New Member" style="ellipse;whiteSpace=wrap;html=1;fontSize=12;" parent="1" vertex="1">
                    <mxGeometry x="-33" y="320" width="120" height="80" as="geometry"/>
                </mxCell>
                <mxCell id="8FMlB73X5gDAxVy7XkIQ-259" value="View Members List" style="ellipse;whiteSpace=wrap;html=1;fontSize=12;" parent="1" vertex="1">
                    <mxGeometry x="117" y="320" width="120" height="80" as="geometry"/>
                </mxCell>
                <mxCell id="8FMlB73X5gDAxVy7XkIQ-260" value="Change member Role" style="ellipse;whiteSpace=wrap;html=1;fontSize=12;" parent="1" vertex="1">
                    <mxGeometry x="252" y="320" width="120" height="80" as="geometry"/>
                </mxCell>
                <mxCell id="8FMlB73X5gDAxVy7XkIQ-261" value="Delete Member" style="ellipse;whiteSpace=wrap;html=1;fontSize=12;" parent="1" vertex="1">
                    <mxGeometry x="720" y="330" width="120" height="80" as="geometry"/>
                </mxCell>
                <mxCell id="8FMlB73X5gDAxVy7XkIQ-262" value="" style="endArrow=none;html=1;rounded=0;exitX=0;exitY=0.5;exitDx=0;exitDy=0;entryX=0.5;entryY=0;entryDx=0;entryDy=0;endFill=0;startArrow=block;startFill=0;fontSize=12;" parent="1" source="8FMlB73X5gDAxVy7XkIQ-21" target="8FMlB73X5gDAxVy7XkIQ-258" edge="1">
                    <mxGeometry width="50" height="50" relative="1" as="geometry">
                        <mxPoint x="342" y="240" as="sourcePoint"/>
                        <mxPoint x="37" y="90" as="targetPoint"/>
                    </mxGeometry>
                </mxCell>
                <mxCell id="8FMlB73X5gDAxVy7XkIQ-263" value="" style="edgeLabel;html=1;align=center;verticalAlign=middle;resizable=0;points=[];fontSize=12;" parent="8FMlB73X5gDAxVy7XkIQ-262" vertex="1" connectable="0">
                    <mxGeometry x="-0.2101" y="4" relative="1" as="geometry">
                        <mxPoint as="offset"/>
                    </mxGeometry>
                </mxCell>
                <mxCell id="8FMlB73X5gDAxVy7XkIQ-264" value="" style="endArrow=none;html=1;rounded=0;exitX=1;exitY=1;exitDx=0;exitDy=0;entryX=0.5;entryY=0;entryDx=0;entryDy=0;endFill=0;startArrow=block;startFill=0;fontSize=12;" parent="1" source="8FMlB73X5gDAxVy7XkIQ-21" target="8FMlB73X5gDAxVy7XkIQ-257" edge="1">
                    <mxGeometry width="50" height="50" relative="1" as="geometry">
                        <mxPoint x="444" y="268" as="sourcePoint"/>
                        <mxPoint x="47" y="100" as="targetPoint"/>
                    </mxGeometry>
                </mxCell>
                <mxCell id="8FMlB73X5gDAxVy7XkIQ-265" value="" style="edgeLabel;html=1;align=center;verticalAlign=middle;resizable=0;points=[];fontSize=12;" parent="8FMlB73X5gDAxVy7XkIQ-264" vertex="1" connectable="0">
                    <mxGeometry x="-0.2268" y="-3" relative="1" as="geometry">
                        <mxPoint as="offset"/>
                    </mxGeometry>
                </mxCell>
                <mxCell id="8FMlB73X5gDAxVy7XkIQ-266" value="" style="endArrow=none;html=1;rounded=0;exitX=1;exitY=0.5;exitDx=0;exitDy=0;entryX=0.5;entryY=0;entryDx=0;entryDy=0;endFill=0;startArrow=block;startFill=0;fontSize=12;" parent="1" source="8FMlB73X5gDAxVy7XkIQ-21" target="8FMlB73X5gDAxVy7XkIQ-261" edge="1">
                    <mxGeometry width="50" height="50" relative="1" as="geometry">
                        <mxPoint x="462" y="240" as="sourcePoint"/>
                        <mxPoint x="57" y="110" as="targetPoint"/>
                    </mxGeometry>
                </mxCell>
                <mxCell id="8FMlB73X5gDAxVy7XkIQ-267" value="" style="edgeLabel;html=1;align=center;verticalAlign=middle;resizable=0;points=[];fontSize=12;" parent="8FMlB73X5gDAxVy7XkIQ-266" vertex="1" connectable="0">
                    <mxGeometry x="-0.2051" y="-4" relative="1" as="geometry">
                        <mxPoint as="offset"/>
                    </mxGeometry>
                </mxCell>
                <mxCell id="8FMlB73X5gDAxVy7XkIQ-268" value="" style="endArrow=none;html=1;rounded=0;exitX=0.5;exitY=1;exitDx=0;exitDy=0;entryX=0.5;entryY=0;entryDx=0;entryDy=0;edgeStyle=orthogonalEdgeStyle;curved=1;endFill=0;startArrow=block;startFill=0;fontSize=12;" parent="1" source="8FMlB73X5gDAxVy7XkIQ-21" target="8FMlB73X5gDAxVy7XkIQ-260" edge="1">
                    <mxGeometry width="50" height="50" relative="1" as="geometry">
                        <mxPoint x="402" y="280" as="sourcePoint"/>
                        <mxPoint x="67" y="120" as="targetPoint"/>
                    </mxGeometry>
                </mxCell>
                <mxCell id="8FMlB73X5gDAxVy7XkIQ-269" value="" style="edgeLabel;html=1;align=center;verticalAlign=middle;resizable=0;points=[];fontSize=12;" parent="8FMlB73X5gDAxVy7XkIQ-268" vertex="1" connectable="0">
                    <mxGeometry x="-0.04" relative="1" as="geometry">
                        <mxPoint as="offset"/>
                    </mxGeometry>
                </mxCell>
                <mxCell id="8FMlB73X5gDAxVy7XkIQ-270" value="" style="endArrow=none;html=1;rounded=0;exitX=0;exitY=1;exitDx=0;exitDy=0;entryX=0.5;entryY=0;entryDx=0;entryDy=0;endFill=0;startArrow=block;startFill=0;fontSize=12;" parent="1" source="8FMlB73X5gDAxVy7XkIQ-21" target="8FMlB73X5gDAxVy7XkIQ-259" edge="1">
                    <mxGeometry width="50" height="50" relative="1" as="geometry">
                        <mxPoint x="360" y="268" as="sourcePoint"/>
                        <mxPoint x="77" y="130" as="targetPoint"/>
                    </mxGeometry>
                </mxCell>
                <mxCell id="8FMlB73X5gDAxVy7XkIQ-271" value="" style="edgeLabel;html=1;align=center;verticalAlign=middle;resizable=0;points=[];fontSize=12;" parent="8FMlB73X5gDAxVy7XkIQ-270" vertex="1" connectable="0">
                    <mxGeometry x="-0.2097" y="2" relative="1" as="geometry">
                        <mxPoint as="offset"/>
                    </mxGeometry>
                </mxCell>
                <mxCell id="8FMlB73X5gDAxVy7XkIQ-273" value="Filter and Search for a Specific Book" style="ellipse;whiteSpace=wrap;html=1;fontSize=12;" parent="1" vertex="1">
                    <mxGeometry x="400" y="570" width="120" height="80" as="geometry"/>
                </mxCell>
                <mxCell id="8FMlB73X5gDAxVy7XkIQ-274" value="Edit Book Data" style="ellipse;whiteSpace=wrap;html=1;fontSize=12;" parent="1" vertex="1">
                    <mxGeometry x="210" y="564" width="120" height="80" as="geometry"/>
                </mxCell>
                <mxCell id="8FMlB73X5gDAxVy7XkIQ-275" value="Add a New Book" style="ellipse;whiteSpace=wrap;html=1;fontSize=12;" parent="1" vertex="1">
                    <mxGeometry x="-70" y="560" width="120" height="80" as="geometry"/>
                </mxCell>
                <mxCell id="8FMlB73X5gDAxVy7XkIQ-277" value="View List of&amp;nbsp; Books" style="ellipse;whiteSpace=wrap;html=1;fontSize=12;" parent="1" vertex="1">
                    <mxGeometry x="68" y="564" width="120" height="80" as="geometry"/>
                </mxCell>
                <mxCell id="8FMlB73X5gDAxVy7XkIQ-278" value="Delete Book" style="ellipse;whiteSpace=wrap;html=1;fontSize=12;" parent="1" vertex="1">
                    <mxGeometry x="530" y="570" width="120" height="80" as="geometry"/>
                </mxCell>
                <mxCell id="8FMlB73X5gDAxVy7XkIQ-281" value="" style="endArrow=none;html=1;rounded=0;exitX=0;exitY=0.5;exitDx=0;exitDy=0;entryX=0.5;entryY=0;entryDx=0;entryDy=0;endFill=0;startArrow=block;startFill=0;fontSize=12;" parent="1" source="8FMlB73X5gDAxVy7XkIQ-28" target="8FMlB73X5gDAxVy7XkIQ-275" edge="1">
                    <mxGeometry width="50" height="50" relative="1" as="geometry">
                        <mxPoint x="342" y="484" as="sourcePoint"/>
                        <mxPoint x="197" y="344" as="targetPoint"/>
                    </mxGeometry>
                </mxCell>
                <mxCell id="8FMlB73X5gDAxVy7XkIQ-282" value="" style="edgeLabel;html=1;align=center;verticalAlign=middle;resizable=0;points=[];fontSize=12;" parent="8FMlB73X5gDAxVy7XkIQ-281" vertex="1" connectable="0">
                    <mxGeometry x="-0.3376" y="4" relative="1" as="geometry">
                        <mxPoint as="offset"/>
                    </mxGeometry>
                </mxCell>
                <mxCell id="8FMlB73X5gDAxVy7XkIQ-283" value="" style="endArrow=none;html=1;rounded=0;exitX=0;exitY=1;exitDx=0;exitDy=0;entryX=0.5;entryY=0;entryDx=0;entryDy=0;endFill=0;startArrow=block;startFill=0;fontSize=12;" parent="1" source="8FMlB73X5gDAxVy7XkIQ-28" target="8FMlB73X5gDAxVy7XkIQ-277" edge="1">
                    <mxGeometry width="50" height="50" relative="1" as="geometry">
                        <mxPoint x="360" y="512" as="sourcePoint"/>
                        <mxPoint x="207" y="354" as="targetPoint"/>
                    </mxGeometry>
                </mxCell>
                <mxCell id="8FMlB73X5gDAxVy7XkIQ-284" value="" style="edgeLabel;html=1;align=center;verticalAlign=middle;resizable=0;points=[];fontSize=12;" parent="8FMlB73X5gDAxVy7XkIQ-283" vertex="1" connectable="0">
                    <mxGeometry x="0.1316" relative="1" as="geometry">
                        <mxPoint as="offset"/>
                    </mxGeometry>
                </mxCell>
                <mxCell id="8FMlB73X5gDAxVy7XkIQ-285" value="" style="endArrow=none;html=1;rounded=0;exitX=0.401;exitY=1.023;exitDx=0;exitDy=0;entryX=0.5;entryY=0;entryDx=0;entryDy=0;endFill=0;startArrow=block;startFill=0;fontSize=12;exitPerimeter=0;" parent="1" source="8FMlB73X5gDAxVy7XkIQ-28" target="8FMlB73X5gDAxVy7XkIQ-274" edge="1">
                    <mxGeometry width="50" height="50" relative="1" as="geometry">
                        <mxPoint x="444" y="512" as="sourcePoint"/>
                        <mxPoint x="217" y="364" as="targetPoint"/>
                    </mxGeometry>
                </mxCell>
                <mxCell id="8FMlB73X5gDAxVy7XkIQ-286" value="" style="edgeLabel;html=1;align=center;verticalAlign=middle;resizable=0;points=[];fontSize=12;" parent="8FMlB73X5gDAxVy7XkIQ-285" vertex="1" connectable="0">
                    <mxGeometry x="0.1594" y="-1" relative="1" as="geometry">
                        <mxPoint as="offset"/>
                    </mxGeometry>
                </mxCell>
                <mxCell id="8FMlB73X5gDAxVy7XkIQ-287" value="" style="endArrow=none;html=1;rounded=0;exitX=0.632;exitY=0.973;exitDx=0;exitDy=0;entryX=0.5;entryY=0;entryDx=0;entryDy=0;endFill=0;startArrow=block;startFill=0;fontSize=12;exitPerimeter=0;" parent="1" source="8FMlB73X5gDAxVy7XkIQ-28" target="8FMlB73X5gDAxVy7XkIQ-273" edge="1">
                    <mxGeometry width="50" height="50" relative="1" as="geometry">
                        <mxPoint x="462" y="484" as="sourcePoint"/>
                        <mxPoint x="227" y="374" as="targetPoint"/>
                    </mxGeometry>
                </mxCell>
                <mxCell id="8FMlB73X5gDAxVy7XkIQ-288" value="" style="edgeLabel;html=1;align=center;verticalAlign=middle;resizable=0;points=[];fontSize=12;" parent="8FMlB73X5gDAxVy7XkIQ-287" vertex="1" connectable="0">
                    <mxGeometry x="-0.3281" y="-2" relative="1" as="geometry">
                        <mxPoint as="offset"/>
                    </mxGeometry>
                </mxCell>
                <mxCell id="8FMlB73X5gDAxVy7XkIQ-289" value="" style="endArrow=none;html=1;rounded=0;exitX=1;exitY=1;exitDx=0;exitDy=0;entryX=0.5;entryY=0;entryDx=0;entryDy=0;endFill=0;startArrow=block;startFill=0;fontSize=12;" parent="1" source="8FMlB73X5gDAxVy7XkIQ-28" target="8FMlB73X5gDAxVy7XkIQ-278" edge="1">
                    <mxGeometry width="50" height="50" relative="1" as="geometry">
                        <mxPoint x="444" y="456" as="sourcePoint"/>
                        <mxPoint x="237" y="384" as="targetPoint"/>
                    </mxGeometry>
                </mxCell>
                <mxCell id="8FMlB73X5gDAxVy7XkIQ-290" value="" style="edgeLabel;html=1;align=center;verticalAlign=middle;resizable=0;points=[];fontSize=12;" parent="8FMlB73X5gDAxVy7XkIQ-289" vertex="1" connectable="0">
                    <mxGeometry x="-0.2465" y="-6" relative="1" as="geometry">
                        <mxPoint as="offset"/>
                    </mxGeometry>
                </mxCell>
                <mxCell id="8FMlB73X5gDAxVy7XkIQ-293" value="Filter and Search for a Specific Newspaper or Magazine" style="ellipse;whiteSpace=wrap;html=1;fontSize=12;" parent="1" vertex="1">
                    <mxGeometry x="567" y="800" width="120" height="80" as="geometry"/>
                </mxCell>
                <mxCell id="8FMlB73X5gDAxVy7XkIQ-294" value="&lt;span style=&quot;text-align: left; font-size: 12px;&quot;&gt;Add a New&amp;nbsp;&lt;/span&gt;&lt;span style=&quot;text-align: left; font-size: 12px;&quot;&gt;Newspaper&amp;nbsp;&lt;/span&gt;&lt;span style=&quot;text-align: left; font-size: 12px;&quot;&gt;or Magazine&lt;/span&gt;" style="ellipse;whiteSpace=wrap;html=1;fontSize=12;" parent="1" vertex="1">
                    <mxGeometry x="-33" y="800" width="120" height="80" as="geometry"/>
                </mxCell>
                <mxCell id="8FMlB73X5gDAxVy7XkIQ-295" value="View List of Newspapers and Magazines" style="ellipse;whiteSpace=wrap;html=1;fontSize=12;" parent="1" vertex="1">
                    <mxGeometry x="117" y="800" width="120" height="80" as="geometry"/>
                </mxCell>
                <mxCell id="8FMlB73X5gDAxVy7XkIQ-296" value="Edit Newspaper or Magazine Data" style="ellipse;whiteSpace=wrap;html=1;fontSize=12;" parent="1" vertex="1">
                    <mxGeometry x="342" y="800" width="120" height="80" as="geometry"/>
                </mxCell>
                <mxCell id="8FMlB73X5gDAxVy7XkIQ-297" value="Delete Newspaper and Magazine" style="ellipse;whiteSpace=wrap;html=1;fontSize=12;" parent="1" vertex="1">
                    <mxGeometry x="717" y="800" width="120" height="80" as="geometry"/>
                </mxCell>
                <mxCell id="8FMlB73X5gDAxVy7XkIQ-298" value="" style="endArrow=none;html=1;rounded=0;exitX=0;exitY=0.5;exitDx=0;exitDy=0;entryX=0.5;entryY=0;entryDx=0;entryDy=0;endFill=0;startArrow=block;startFill=0;fontSize=12;" parent="1" source="8FMlB73X5gDAxVy7XkIQ-29" target="8FMlB73X5gDAxVy7XkIQ-294" edge="1">
                    <mxGeometry width="50" height="50" relative="1" as="geometry">
                        <mxPoint x="342" y="720" as="sourcePoint"/>
                        <mxPoint x="37" y="570" as="targetPoint"/>
                    </mxGeometry>
                </mxCell>
                <mxCell id="8FMlB73X5gDAxVy7XkIQ-299" value="" style="edgeLabel;html=1;align=center;verticalAlign=middle;resizable=0;points=[];fontSize=12;" parent="8FMlB73X5gDAxVy7XkIQ-298" vertex="1" connectable="0">
                    <mxGeometry x="-0.2101" y="4" relative="1" as="geometry">
                        <mxPoint as="offset"/>
                    </mxGeometry>
                </mxCell>
                <mxCell id="8FMlB73X5gDAxVy7XkIQ-300" value="" style="endArrow=none;html=1;rounded=0;exitX=1;exitY=1;exitDx=0;exitDy=0;entryX=0.5;entryY=0;entryDx=0;entryDy=0;endFill=0;startArrow=block;startFill=0;fontSize=12;" parent="1" source="8FMlB73X5gDAxVy7XkIQ-29" target="8FMlB73X5gDAxVy7XkIQ-293" edge="1">
                    <mxGeometry width="50" height="50" relative="1" as="geometry">
                        <mxPoint x="444" y="748" as="sourcePoint"/>
                        <mxPoint x="47" y="580" as="targetPoint"/>
                    </mxGeometry>
                </mxCell>
                <mxCell id="8FMlB73X5gDAxVy7XkIQ-301" value="" style="edgeLabel;html=1;align=center;verticalAlign=middle;resizable=0;points=[];fontSize=12;" parent="8FMlB73X5gDAxVy7XkIQ-300" vertex="1" connectable="0">
                    <mxGeometry x="-0.2268" y="-3" relative="1" as="geometry">
                        <mxPoint as="offset"/>
                    </mxGeometry>
                </mxCell>
                <mxCell id="8FMlB73X5gDAxVy7XkIQ-302" value="" style="endArrow=none;html=1;rounded=0;exitX=1;exitY=0.5;exitDx=0;exitDy=0;entryX=0.5;entryY=0;entryDx=0;entryDy=0;endFill=0;startArrow=block;startFill=0;fontSize=12;" parent="1" source="8FMlB73X5gDAxVy7XkIQ-29" target="8FMlB73X5gDAxVy7XkIQ-297" edge="1">
                    <mxGeometry width="50" height="50" relative="1" as="geometry">
                        <mxPoint x="462" y="720" as="sourcePoint"/>
                        <mxPoint x="57" y="590" as="targetPoint"/>
                    </mxGeometry>
                </mxCell>
                <mxCell id="8FMlB73X5gDAxVy7XkIQ-303" value="" style="edgeLabel;html=1;align=center;verticalAlign=middle;resizable=0;points=[];fontSize=12;" parent="8FMlB73X5gDAxVy7XkIQ-302" vertex="1" connectable="0">
                    <mxGeometry x="-0.2051" y="-4" relative="1" as="geometry">
                        <mxPoint as="offset"/>
                    </mxGeometry>
                </mxCell>
                <mxCell id="8FMlB73X5gDAxVy7XkIQ-304" value="" style="endArrow=none;html=1;rounded=0;exitX=0.5;exitY=1;exitDx=0;exitDy=0;entryX=0.5;entryY=0;entryDx=0;entryDy=0;edgeStyle=orthogonalEdgeStyle;curved=1;endFill=0;startArrow=block;startFill=0;fontSize=12;" parent="1" source="8FMlB73X5gDAxVy7XkIQ-29" target="8FMlB73X5gDAxVy7XkIQ-296" edge="1">
                    <mxGeometry width="50" height="50" relative="1" as="geometry">
                        <mxPoint x="402" y="760" as="sourcePoint"/>
                        <mxPoint x="67" y="600" as="targetPoint"/>
                    </mxGeometry>
                </mxCell>
                <mxCell id="8FMlB73X5gDAxVy7XkIQ-305" value="" style="edgeLabel;html=1;align=center;verticalAlign=middle;resizable=0;points=[];fontSize=12;" parent="8FMlB73X5gDAxVy7XkIQ-304" vertex="1" connectable="0">
                    <mxGeometry x="-0.04" relative="1" as="geometry">
                        <mxPoint as="offset"/>
                    </mxGeometry>
                </mxCell>
                <mxCell id="8FMlB73X5gDAxVy7XkIQ-306" value="" style="endArrow=none;html=1;rounded=0;exitX=0;exitY=1;exitDx=0;exitDy=0;entryX=0.5;entryY=0;entryDx=0;entryDy=0;endFill=0;startArrow=block;startFill=0;fontSize=12;" parent="1" source="8FMlB73X5gDAxVy7XkIQ-29" target="8FMlB73X5gDAxVy7XkIQ-295" edge="1">
                    <mxGeometry width="50" height="50" relative="1" as="geometry">
                        <mxPoint x="360" y="748" as="sourcePoint"/>
                        <mxPoint x="77" y="610" as="targetPoint"/>
                    </mxGeometry>
                </mxCell>
                <mxCell id="8FMlB73X5gDAxVy7XkIQ-307" value="" style="edgeLabel;html=1;align=center;verticalAlign=middle;resizable=0;points=[];fontSize=12;" parent="8FMlB73X5gDAxVy7XkIQ-306" vertex="1" connectable="0">
                    <mxGeometry x="-0.2097" y="2" relative="1" as="geometry">
                        <mxPoint as="offset"/>
                    </mxGeometry>
                </mxCell>
                <mxCell id="8FMlB73X5gDAxVy7XkIQ-309" value="Loan a Book to a Member" style="ellipse;whiteSpace=wrap;html=1;fontSize=12;" parent="1" vertex="1">
                    <mxGeometry x="180" y="970" width="120" height="80" as="geometry"/>
                </mxCell>
                <mxCell id="8FMlB73X5gDAxVy7XkIQ-313" value="" style="endArrow=none;html=1;rounded=0;exitX=0;exitY=0.5;exitDx=0;exitDy=0;entryX=0.5;entryY=0;entryDx=0;entryDy=0;endFill=0;startArrow=block;startFill=0;fontSize=12;" parent="1" source="8FMlB73X5gDAxVy7XkIQ-33" target="8FMlB73X5gDAxVy7XkIQ-309" edge="1">
                    <mxGeometry width="50" height="50" relative="1" as="geometry">
                        <mxPoint x="343" y="960" as="sourcePoint"/>
                        <mxPoint x="358" y="920" as="targetPoint"/>
                    </mxGeometry>
                </mxCell>
                <mxCell id="8FMlB73X5gDAxVy7XkIQ-314" value="" style="edgeLabel;html=1;align=center;verticalAlign=middle;resizable=0;points=[];fontSize=12;" parent="8FMlB73X5gDAxVy7XkIQ-313" vertex="1" connectable="0">
                    <mxGeometry x="-0.3441" y="1" relative="1" as="geometry">
                        <mxPoint as="offset"/>
                    </mxGeometry>
                </mxCell>
                <mxCell id="8FMlB73X5gDAxVy7XkIQ-323" value="update loan value" style="ellipse;whiteSpace=wrap;html=1;fontSize=12;" parent="1" vertex="1">
                    <mxGeometry x="188" y="1750" width="120" height="80" as="geometry"/>
                </mxCell>
                <mxCell id="8FMlB73X5gDAxVy7XkIQ-324" value="" style="endArrow=none;html=1;rounded=0;exitX=0;exitY=1;exitDx=0;exitDy=0;entryX=0.5;entryY=0;entryDx=0;entryDy=0;endFill=0;startArrow=block;startFill=0;fontSize=12;" parent="1" source="8FMlB73X5gDAxVy7XkIQ-34" target="8FMlB73X5gDAxVy7XkIQ-323" edge="1">
                    <mxGeometry width="50" height="50" relative="1" as="geometry">
                        <mxPoint x="361" y="1694" as="sourcePoint"/>
                        <mxPoint x="238" y="1570" as="targetPoint"/>
                    </mxGeometry>
                </mxCell>
                <mxCell id="8FMlB73X5gDAxVy7XkIQ-325" value="" style="edgeLabel;html=1;align=center;verticalAlign=middle;resizable=0;points=[];fontSize=12;" parent="8FMlB73X5gDAxVy7XkIQ-324" vertex="1" connectable="0">
                    <mxGeometry x="-0.318" y="3" relative="1" as="geometry">
                        <mxPoint as="offset"/>
                    </mxGeometry>
                </mxCell>
                <mxCell id="8FMlB73X5gDAxVy7XkIQ-357" value="&lt;span style=&quot;color: rgb(0, 0, 0);&quot;&gt;delete Category&lt;/span&gt;" style="ellipse;whiteSpace=wrap;html=1;fontSize=12;" parent="1" vertex="1">
                    <mxGeometry x="470" y="2040" width="120" height="80" as="geometry"/>
                </mxCell>
                <mxCell id="8FMlB73X5gDAxVy7XkIQ-358" value="&lt;span style=&quot;color: rgb(0, 0, 0);&quot;&gt;update Category&lt;/span&gt;" style="ellipse;whiteSpace=wrap;html=1;fontSize=12;" parent="1" vertex="1">
                    <mxGeometry x="342" y="2040" width="120" height="80" as="geometry"/>
                </mxCell>
                <mxCell id="8FMlB73X5gDAxVy7XkIQ-359" value="" style="endArrow=none;html=1;rounded=0;exitX=0.985;exitY=0.569;exitDx=0;exitDy=0;entryX=0.5;entryY=0;entryDx=0;entryDy=0;endFill=0;startArrow=block;startFill=0;fontSize=12;exitPerimeter=0;" parent="1" source="8FMlB73X5gDAxVy7XkIQ-37" target="8FMlB73X5gDAxVy7XkIQ-357" edge="1">
                    <mxGeometry width="50" height="50" relative="1" as="geometry">
                        <mxPoint x="445" y="2012" as="sourcePoint"/>
                        <mxPoint x="188" y="1834" as="targetPoint"/>
                    </mxGeometry>
                </mxCell>
                <mxCell id="8FMlB73X5gDAxVy7XkIQ-360" value="" style="edgeLabel;html=1;align=center;verticalAlign=middle;resizable=0;points=[];fontSize=12;" parent="8FMlB73X5gDAxVy7XkIQ-359" vertex="1" connectable="0">
                    <mxGeometry x="0.1169" y="1" relative="1" as="geometry">
                        <mxPoint as="offset"/>
                    </mxGeometry>
                </mxCell>
                <mxCell id="8FMlB73X5gDAxVy7XkIQ-361" value="" style="endArrow=none;html=1;rounded=0;exitX=0.447;exitY=0.988;exitDx=0;exitDy=0;entryX=0.5;entryY=0;entryDx=0;entryDy=0;endFill=0;startArrow=block;startFill=0;fontSize=12;exitPerimeter=0;" parent="1" source="8FMlB73X5gDAxVy7XkIQ-37" target="8FMlB73X5gDAxVy7XkIQ-358" edge="1">
                    <mxGeometry width="50" height="50" relative="1" as="geometry">
                        <mxPoint x="361" y="2012" as="sourcePoint"/>
                        <mxPoint x="198" y="1844" as="targetPoint"/>
                    </mxGeometry>
                </mxCell>
                <mxCell id="8FMlB73X5gDAxVy7XkIQ-362" value="" style="edgeLabel;html=1;align=center;verticalAlign=middle;resizable=0;points=[];fontSize=12;" parent="8FMlB73X5gDAxVy7XkIQ-361" vertex="1" connectable="0">
                    <mxGeometry x="0.1467" y="-1" relative="1" as="geometry">
                        <mxPoint as="offset"/>
                    </mxGeometry>
                </mxCell>
                <mxCell id="mRlZIqWXYmQuV_ElUZWs-1" value="Manage Complaint" style="ellipse;whiteSpace=wrap;html=1;fontSize=12;" parent="1" vertex="1">
                    <mxGeometry x="342" y="1100" width="120" height="80" as="geometry"/>
                </mxCell>
                <mxCell id="mRlZIqWXYmQuV_ElUZWs-18" value="Manage Group (Forum)" style="ellipse;whiteSpace=wrap;html=1;fontSize=12;" parent="1" vertex="1">
                    <mxGeometry x="345" y="1360" width="120" height="80" as="geometry"/>
                </mxCell>
                <mxCell id="mRlZIqWXYmQuV_ElUZWs-19" value="Delete Book from Group" style="ellipse;whiteSpace=wrap;html=1;fontSize=12;" parent="1" vertex="1">
                    <mxGeometry x="570" y="1480" width="120" height="80" as="geometry"/>
                </mxCell>
                <mxCell id="mRlZIqWXYmQuV_ElUZWs-20" value="Create Group" style="ellipse;whiteSpace=wrap;html=1;fontSize=12;" parent="1" vertex="1">
                    <mxGeometry x="-30" y="1480" width="120" height="80" as="geometry"/>
                </mxCell>
                <mxCell id="mRlZIqWXYmQuV_ElUZWs-21" value="Add Book to Group" style="ellipse;whiteSpace=wrap;html=1;fontSize=12;" parent="1" vertex="1">
                    <mxGeometry x="120" y="1480" width="120" height="80" as="geometry"/>
                </mxCell>
                <mxCell id="mRlZIqWXYmQuV_ElUZWs-22" value="Join Any Group" style="ellipse;whiteSpace=wrap;html=1;fontSize=12;" parent="1" vertex="1">
                    <mxGeometry x="270" y="1490" width="120" height="80" as="geometry"/>
                </mxCell>
                <mxCell id="mRlZIqWXYmQuV_ElUZWs-23" value="Delete Any Group" style="ellipse;whiteSpace=wrap;html=1;fontSize=12;" parent="1" vertex="1">
                    <mxGeometry x="720" y="1480" width="120" height="80" as="geometry"/>
                </mxCell>
                <mxCell id="mRlZIqWXYmQuV_ElUZWs-24" value="" style="endArrow=none;html=1;rounded=0;exitX=0;exitY=0.5;exitDx=0;exitDy=0;entryX=0.5;entryY=0;entryDx=0;entryDy=0;endFill=0;startArrow=block;startFill=0;fontSize=12;" parent="1" source="mRlZIqWXYmQuV_ElUZWs-18" target="mRlZIqWXYmQuV_ElUZWs-20" edge="1">
                    <mxGeometry width="50" height="50" relative="1" as="geometry">
                        <mxPoint x="345" y="1400" as="sourcePoint"/>
                        <mxPoint x="40" y="1250" as="targetPoint"/>
                    </mxGeometry>
                </mxCell>
                <mxCell id="mRlZIqWXYmQuV_ElUZWs-25" value="" style="edgeLabel;html=1;align=center;verticalAlign=middle;resizable=0;points=[];fontSize=12;" parent="mRlZIqWXYmQuV_ElUZWs-24" vertex="1" connectable="0">
                    <mxGeometry x="-0.2101" y="4" relative="1" as="geometry">
                        <mxPoint as="offset"/>
                    </mxGeometry>
                </mxCell>
                <mxCell id="mRlZIqWXYmQuV_ElUZWs-26" value="" style="endArrow=none;html=1;rounded=0;exitX=1;exitY=1;exitDx=0;exitDy=0;entryX=0.5;entryY=0;entryDx=0;entryDy=0;endFill=0;startArrow=block;startFill=0;fontSize=12;" parent="1" source="mRlZIqWXYmQuV_ElUZWs-18" target="mRlZIqWXYmQuV_ElUZWs-19" edge="1">
                    <mxGeometry width="50" height="50" relative="1" as="geometry">
                        <mxPoint x="447" y="1428" as="sourcePoint"/>
                        <mxPoint x="50" y="1260" as="targetPoint"/>
                    </mxGeometry>
                </mxCell>
                <mxCell id="mRlZIqWXYmQuV_ElUZWs-27" value="" style="edgeLabel;html=1;align=center;verticalAlign=middle;resizable=0;points=[];fontSize=12;" parent="mRlZIqWXYmQuV_ElUZWs-26" vertex="1" connectable="0">
                    <mxGeometry x="-0.2268" y="-3" relative="1" as="geometry">
                        <mxPoint as="offset"/>
                    </mxGeometry>
                </mxCell>
                <mxCell id="mRlZIqWXYmQuV_ElUZWs-28" value="" style="endArrow=none;html=1;rounded=0;exitX=1;exitY=0.5;exitDx=0;exitDy=0;entryX=0.5;entryY=0;entryDx=0;entryDy=0;endFill=0;startArrow=block;startFill=0;fontSize=12;" parent="1" source="mRlZIqWXYmQuV_ElUZWs-18" target="mRlZIqWXYmQuV_ElUZWs-23" edge="1">
                    <mxGeometry width="50" height="50" relative="1" as="geometry">
                        <mxPoint x="465" y="1400" as="sourcePoint"/>
                        <mxPoint x="60" y="1270" as="targetPoint"/>
                    </mxGeometry>
                </mxCell>
                <mxCell id="mRlZIqWXYmQuV_ElUZWs-29" value="" style="edgeLabel;html=1;align=center;verticalAlign=middle;resizable=0;points=[];fontSize=12;" parent="mRlZIqWXYmQuV_ElUZWs-28" vertex="1" connectable="0">
                    <mxGeometry x="-0.2051" y="-4" relative="1" as="geometry">
                        <mxPoint as="offset"/>
                    </mxGeometry>
                </mxCell>
                <mxCell id="mRlZIqWXYmQuV_ElUZWs-30" value="" style="endArrow=none;html=1;rounded=0;exitX=0.5;exitY=1;exitDx=0;exitDy=0;entryX=0.5;entryY=0;entryDx=0;entryDy=0;edgeStyle=orthogonalEdgeStyle;curved=1;endFill=0;startArrow=block;startFill=0;fontSize=12;" parent="1" source="mRlZIqWXYmQuV_ElUZWs-18" target="mRlZIqWXYmQuV_ElUZWs-22" edge="1">
                    <mxGeometry width="50" height="50" relative="1" as="geometry">
                        <mxPoint x="405" y="1440" as="sourcePoint"/>
                        <mxPoint x="70" y="1280" as="targetPoint"/>
                    </mxGeometry>
                </mxCell>
                <mxCell id="mRlZIqWXYmQuV_ElUZWs-31" value="" style="edgeLabel;html=1;align=center;verticalAlign=middle;resizable=0;points=[];fontSize=12;" parent="mRlZIqWXYmQuV_ElUZWs-30" vertex="1" connectable="0">
                    <mxGeometry x="-0.04" relative="1" as="geometry">
                        <mxPoint as="offset"/>
                    </mxGeometry>
                </mxCell>
                <mxCell id="mRlZIqWXYmQuV_ElUZWs-32" value="" style="endArrow=none;html=1;rounded=0;exitX=0;exitY=1;exitDx=0;exitDy=0;entryX=0.5;entryY=0;entryDx=0;entryDy=0;endFill=0;startArrow=block;startFill=0;fontSize=12;" parent="1" source="mRlZIqWXYmQuV_ElUZWs-18" target="mRlZIqWXYmQuV_ElUZWs-21" edge="1">
                    <mxGeometry width="50" height="50" relative="1" as="geometry">
                        <mxPoint x="363" y="1428" as="sourcePoint"/>
                        <mxPoint x="80" y="1290" as="targetPoint"/>
                    </mxGeometry>
                </mxCell>
                <mxCell id="mRlZIqWXYmQuV_ElUZWs-33" value="" style="edgeLabel;html=1;align=center;verticalAlign=middle;resizable=0;points=[];fontSize=12;" parent="mRlZIqWXYmQuV_ElUZWs-32" vertex="1" connectable="0">
                    <mxGeometry x="-0.2097" y="2" relative="1" as="geometry">
                        <mxPoint as="offset"/>
                    </mxGeometry>
                </mxCell>
                <mxCell id="2" value="Forget Password" style="ellipse;whiteSpace=wrap;html=1;fontSize=12;" vertex="1" parent="1">
                    <mxGeometry x="630" y="80" width="120" height="80" as="geometry"/>
                </mxCell>
                <mxCell id="3" value="" style="endArrow=none;html=1;rounded=0;exitX=1;exitY=0.5;exitDx=0;exitDy=0;entryX=0;entryY=0.5;entryDx=0;entryDy=0;endFill=0;startArrow=block;startFill=0;fontSize=12;" edge="1" parent="1" target="2">
                    <mxGeometry width="50" height="50" relative="1" as="geometry">
                        <mxPoint x="463" y="120" as="sourcePoint"/>
                        <mxPoint x="778" y="200" as="targetPoint"/>
                    </mxGeometry>
                </mxCell>
                <mxCell id="4" value="" style="edgeLabel;html=1;align=center;verticalAlign=middle;resizable=0;points=[];fontSize=12;" vertex="1" connectable="0" parent="3">
                    <mxGeometry x="-0.2051" y="-4" relative="1" as="geometry">
                        <mxPoint as="offset"/>
                    </mxGeometry>
                </mxCell>
                <mxCell id="5" value="Book of Month" style="ellipse;whiteSpace=wrap;html=1;fontSize=12;" vertex="1" parent="1">
                    <mxGeometry x="670" y="570" width="120" height="80" as="geometry"/>
                </mxCell>
                <mxCell id="6" value="" style="endArrow=none;html=1;rounded=0;exitX=1;exitY=0.5;exitDx=0;exitDy=0;entryX=0.363;entryY=0.008;entryDx=0;entryDy=0;endFill=0;startArrow=block;startFill=0;fontSize=12;entryPerimeter=0;" edge="1" parent="1" source="8FMlB73X5gDAxVy7XkIQ-28" target="5">
                    <mxGeometry width="50" height="50" relative="1" as="geometry">
                        <mxPoint x="464.57" y="440.28" as="sourcePoint"/>
                        <mxPoint x="797.57" y="552.28" as="targetPoint"/>
                    </mxGeometry>
                </mxCell>
                <mxCell id="7" value="" style="edgeLabel;html=1;align=center;verticalAlign=middle;resizable=0;points=[];fontSize=12;" vertex="1" connectable="0" parent="6">
                    <mxGeometry x="-0.2465" y="-6" relative="1" as="geometry">
                        <mxPoint as="offset"/>
                    </mxGeometry>
                </mxCell>
                <mxCell id="8" value="Books Discount" style="ellipse;whiteSpace=wrap;html=1;fontSize=12;" vertex="1" parent="1">
                    <mxGeometry x="810" y="570" width="120" height="80" as="geometry"/>
                </mxCell>
                <mxCell id="9" value="" style="endArrow=none;html=1;rounded=0;exitX=0.96;exitY=0.286;exitDx=0;exitDy=0;entryX=0.415;entryY=-0.002;entryDx=0;entryDy=0;endFill=0;startArrow=block;startFill=0;fontSize=12;entryPerimeter=0;exitPerimeter=0;" edge="1" parent="1" source="8FMlB73X5gDAxVy7XkIQ-28" target="8">
                    <mxGeometry width="50" height="50" relative="1" as="geometry">
                        <mxPoint x="460.01" y="430.28" as="sourcePoint"/>
                        <mxPoint x="920.01" y="539.28" as="targetPoint"/>
                    </mxGeometry>
                </mxCell>
                <mxCell id="10" value="" style="edgeLabel;html=1;align=center;verticalAlign=middle;resizable=0;points=[];fontSize=12;" vertex="1" connectable="0" parent="9">
                    <mxGeometry x="-0.2465" y="-6" relative="1" as="geometry">
                        <mxPoint as="offset"/>
                    </mxGeometry>
                </mxCell>
                <mxCell id="14" value="Manage Members" style="ellipse;whiteSpace=wrap;html=1;fontSize=12;" vertex="1" parent="1">
                    <mxGeometry x="432" y="1490" width="120" height="80" as="geometry"/>
                </mxCell>
                <mxCell id="15" value="" style="endArrow=none;html=1;rounded=0;exitX=0.6;exitY=0.982;exitDx=0;exitDy=0;entryX=0.5;entryY=0;entryDx=0;entryDy=0;edgeStyle=orthogonalEdgeStyle;curved=1;endFill=0;startArrow=block;startFill=0;fontSize=12;exitPerimeter=0;" edge="1" parent="1" source="mRlZIqWXYmQuV_ElUZWs-18" target="14">
                    <mxGeometry width="50" height="50" relative="1" as="geometry">
                        <mxPoint x="493" y="1450" as="sourcePoint"/>
                        <mxPoint x="418" y="1500" as="targetPoint"/>
                    </mxGeometry>
                </mxCell>
                <mxCell id="16" value="" style="edgeLabel;html=1;align=center;verticalAlign=middle;resizable=0;points=[];fontSize=12;" vertex="1" connectable="0" parent="15">
                    <mxGeometry x="-0.04" relative="1" as="geometry">
                        <mxPoint as="offset"/>
                    </mxGeometry>
                </mxCell>
                <mxCell id="20" value="add Category" style="ellipse;whiteSpace=wrap;html=1;fontSize=12;" vertex="1" parent="1">
                    <mxGeometry x="200" y="2030" width="120" height="80" as="geometry"/>
                </mxCell>
                <mxCell id="22" value="" style="endArrow=none;html=1;rounded=0;exitX=0;exitY=1;exitDx=0;exitDy=0;entryX=0.641;entryY=0.036;entryDx=0;entryDy=0;endFill=0;startArrow=block;startFill=0;fontSize=12;entryPerimeter=0;" edge="1" parent="1" target="20">
                    <mxGeometry width="50" height="50" relative="1" as="geometry">
                        <mxPoint x="340" y="1989.7199999999998" as="sourcePoint"/>
                        <mxPoint x="308" y="2043.7199999999998" as="targetPoint"/>
                    </mxGeometry>
                </mxCell>
                <mxCell id="23" value="" style="edgeLabel;html=1;align=center;verticalAlign=middle;resizable=0;points=[];fontSize=12;" vertex="1" connectable="0" parent="22">
                    <mxGeometry x="0.1467" y="-1" relative="1" as="geometry">
                        <mxPoint as="offset"/>
                    </mxGeometry>
                </mxCell>
                <mxCell id="26" value="Change&amp;nbsp; member Activation" style="ellipse;whiteSpace=wrap;html=1;fontSize=12;" vertex="1" parent="1">
                    <mxGeometry x="432" y="330" width="120" height="80" as="geometry"/>
                </mxCell>
                <mxCell id="27" value="" style="endArrow=none;html=1;rounded=0;exitX=0.593;exitY=0.998;exitDx=0;exitDy=0;entryX=0.5;entryY=0;entryDx=0;entryDy=0;edgeStyle=orthogonalEdgeStyle;curved=1;endFill=0;startArrow=block;startFill=0;fontSize=12;exitPerimeter=0;" edge="1" parent="1" source="8FMlB73X5gDAxVy7XkIQ-21" target="26">
                    <mxGeometry width="50" height="50" relative="1" as="geometry">
                        <mxPoint x="402" y="280" as="sourcePoint"/>
                        <mxPoint x="67" y="120" as="targetPoint"/>
                    </mxGeometry>
                </mxCell>
                <mxCell id="28" value="" style="edgeLabel;html=1;align=center;verticalAlign=middle;resizable=0;points=[];fontSize=12;" vertex="1" connectable="0" parent="27">
                    <mxGeometry x="-0.04" relative="1" as="geometry">
                        <mxPoint as="offset"/>
                    </mxGeometry>
                </mxCell>
                <mxCell id="29" value="Filter and Search for a Specific data&amp;nbsp;" style="ellipse;whiteSpace=wrap;html=1;fontSize=12;" vertex="1" parent="1">
                    <mxGeometry x="500" y="970" width="120" height="80" as="geometry"/>
                </mxCell>
                <mxCell id="30" value="" style="endArrow=none;html=1;rounded=0;exitX=1;exitY=0.5;exitDx=0;exitDy=0;entryX=0.347;entryY=-0.01;entryDx=0;entryDy=0;endFill=0;startArrow=block;startFill=0;fontSize=12;entryPerimeter=0;" edge="1" parent="1" source="8FMlB73X5gDAxVy7XkIQ-33" target="29">
                    <mxGeometry width="50" height="50" relative="1" as="geometry">
                        <mxPoint x="640" y="970" as="sourcePoint"/>
                        <mxPoint x="538" y="980" as="targetPoint"/>
                    </mxGeometry>
                </mxCell>
                <mxCell id="31" value="" style="edgeLabel;html=1;align=center;verticalAlign=middle;resizable=0;points=[];fontSize=12;" vertex="1" connectable="0" parent="30">
                    <mxGeometry x="-0.3441" y="1" relative="1" as="geometry">
                        <mxPoint as="offset"/>
                    </mxGeometry>
                </mxCell>
                <mxCell id="32" value="Filter and Search for a Specific data&amp;nbsp;" style="ellipse;whiteSpace=wrap;html=1;fontSize=12;" vertex="1" parent="1">
                    <mxGeometry x="550" y="1159.2" width="120" height="80" as="geometry"/>
                </mxCell>
                <mxCell id="35" value="" style="endArrow=none;html=1;rounded=0;exitX=1;exitY=0.5;exitDx=0;exitDy=0;entryX=0.417;entryY=0.01;entryDx=0;entryDy=0;endFill=0;startArrow=block;startFill=0;fontSize=12;entryPerimeter=0;" edge="1" parent="1" target="32">
                    <mxGeometry width="50" height="50" relative="1" as="geometry">
                        <mxPoint x="458.36" y="1140.8" as="sourcePoint"/>
                        <mxPoint x="538.36" y="1149.8" as="targetPoint"/>
                    </mxGeometry>
                </mxCell>
                <mxCell id="36" value="" style="edgeLabel;html=1;align=center;verticalAlign=middle;resizable=0;points=[];fontSize=12;" vertex="1" connectable="0" parent="35">
                    <mxGeometry x="-0.3441" y="1" relative="1" as="geometry">
                        <mxPoint as="offset"/>
                    </mxGeometry>
                </mxCell>
                <mxCell id="37" value="" style="endArrow=none;html=1;rounded=0;exitX=0;exitY=0.5;exitDx=0;exitDy=0;entryX=0.5;entryY=0;entryDx=0;entryDy=0;endFill=0;startArrow=block;startFill=0;fontSize=12;" edge="1" parent="1" source="mRlZIqWXYmQuV_ElUZWs-1" target="39">
                    <mxGeometry width="50" height="50" relative="1" as="geometry">
                        <mxPoint x="158.36" y="1150" as="sourcePoint"/>
                        <mxPoint x="238.36" y="1159" as="targetPoint"/>
                    </mxGeometry>
                </mxCell>
                <mxCell id="38" value="" style="edgeLabel;html=1;align=center;verticalAlign=middle;resizable=0;points=[];fontSize=12;" vertex="1" connectable="0" parent="37">
                    <mxGeometry x="-0.3441" y="1" relative="1" as="geometry">
                        <mxPoint as="offset"/>
                    </mxGeometry>
                </mxCell>
                <mxCell id="39" value="View Detalies" style="ellipse;whiteSpace=wrap;html=1;fontSize=12;" vertex="1" parent="1">
                    <mxGeometry x="150" y="1159.2" width="120" height="80" as="geometry"/>
                </mxCell>
                <mxCell id="40" value="Mark as solved" style="ellipse;whiteSpace=wrap;html=1;fontSize=12;" vertex="1" parent="1">
                    <mxGeometry x="280" y="1220" width="120" height="80" as="geometry"/>
                </mxCell>
                <mxCell id="41" value="Delete" style="ellipse;whiteSpace=wrap;html=1;fontSize=12;" vertex="1" parent="1">
                    <mxGeometry x="418" y="1220" width="120" height="80" as="geometry"/>
                </mxCell>
                <mxCell id="42" value="" style="endArrow=none;html=1;rounded=0;exitX=0;exitY=0.5;exitDx=0;exitDy=0;entryX=0.584;entryY=-0.016;entryDx=0;entryDy=0;endFill=0;startArrow=block;startFill=0;fontSize=12;entryPerimeter=0;" edge="1" parent="1" target="40">
                    <mxGeometry width="50" height="50" relative="1" as="geometry">
                        <mxPoint x="384" y="1180" as="sourcePoint"/>
                        <mxPoint x="252" y="1199" as="targetPoint"/>
                    </mxGeometry>
                </mxCell>
                <mxCell id="43" value="" style="edgeLabel;html=1;align=center;verticalAlign=middle;resizable=0;points=[];fontSize=12;" vertex="1" connectable="0" parent="42">
                    <mxGeometry x="-0.3441" y="1" relative="1" as="geometry">
                        <mxPoint as="offset"/>
                    </mxGeometry>
                </mxCell>
                <mxCell id="44" value="" style="endArrow=none;html=1;rounded=0;exitX=1;exitY=0.5;exitDx=0;exitDy=0;entryX=0.326;entryY=0.009;entryDx=0;entryDy=0;endFill=0;startArrow=block;startFill=0;fontSize=12;entryPerimeter=0;" edge="1" parent="1" target="41">
                    <mxGeometry width="50" height="50" relative="1" as="geometry">
                        <mxPoint x="425" y="1180" as="sourcePoint"/>
                        <mxPoint x="566.64" y="1199.2" as="targetPoint"/>
                    </mxGeometry>
                </mxCell>
                <mxCell id="45" value="" style="edgeLabel;html=1;align=center;verticalAlign=middle;resizable=0;points=[];fontSize=12;" vertex="1" connectable="0" parent="44">
                    <mxGeometry x="-0.3441" y="1" relative="1" as="geometry">
                        <mxPoint as="offset"/>
                    </mxGeometry>
                </mxCell>
                <mxCell id="46" value="update fine value" style="ellipse;whiteSpace=wrap;html=1;fontSize=12;" vertex="1" parent="1">
                    <mxGeometry x="360" y="1750" width="120" height="80" as="geometry"/>
                </mxCell>
                <mxCell id="47" value="update standared purchase value" style="ellipse;whiteSpace=wrap;html=1;fontSize=12;" vertex="1" parent="1">
                    <mxGeometry x="530" y="1750" width="120" height="80" as="geometry"/>
                </mxCell>
                <mxCell id="48" value="" style="endArrow=none;html=1;rounded=0;exitX=0.543;exitY=0.987;exitDx=0;exitDy=0;entryX=0.5;entryY=0;entryDx=0;entryDy=0;endFill=0;startArrow=block;startFill=0;fontSize=12;exitPerimeter=0;" edge="1" parent="1" source="8FMlB73X5gDAxVy7XkIQ-34">
                    <mxGeometry width="50" height="50" relative="1" as="geometry">
                        <mxPoint x="520.4300000000001" y="1692" as="sourcePoint"/>
                        <mxPoint x="408.43" y="1750" as="targetPoint"/>
                    </mxGeometry>
                </mxCell>
                <mxCell id="49" value="" style="edgeLabel;html=1;align=center;verticalAlign=middle;resizable=0;points=[];fontSize=12;" vertex="1" connectable="0" parent="48">
                    <mxGeometry x="-0.318" y="3" relative="1" as="geometry">
                        <mxPoint as="offset"/>
                    </mxGeometry>
                </mxCell>
                <mxCell id="52" value="" style="endArrow=none;html=1;rounded=0;exitX=0.929;exitY=0.704;exitDx=0;exitDy=0;entryX=0.5;entryY=0;entryDx=0;entryDy=0;endFill=0;startArrow=block;startFill=0;fontSize=12;exitPerimeter=0;" edge="1" parent="1" source="8FMlB73X5gDAxVy7XkIQ-34" target="47">
                    <mxGeometry width="50" height="50" relative="1" as="geometry">
                        <mxPoint x="599.84" y="1693" as="sourcePoint"/>
                        <mxPoint x="601.27" y="1740" as="targetPoint"/>
                    </mxGeometry>
                </mxCell>
                <mxCell id="53" value="" style="edgeLabel;html=1;align=center;verticalAlign=middle;resizable=0;points=[];fontSize=12;" vertex="1" connectable="0" parent="52">
                    <mxGeometry x="-0.318" y="3" relative="1" as="geometry">
                        <mxPoint as="offset"/>
                    </mxGeometry>
                </mxCell>
                <mxCell id="58" value="View Summary Statistics" style="ellipse;whiteSpace=wrap;html=1;fontSize=12;" vertex="1" parent="1">
                    <mxGeometry x="210" y="2360" width="120" height="80" as="geometry"/>
                </mxCell>
                <mxCell id="59" value="View Summary Statistics" style="ellipse;whiteSpace=wrap;html=1;fontSize=12;" vertex="1" parent="1">
                    <mxGeometry x="480" y="2360" width="120" height="80" as="geometry"/>
                </mxCell>
                <mxCell id="64" value="" style="endArrow=none;html=1;rounded=0;exitX=0.098;exitY=0.807;exitDx=0;exitDy=0;entryX=0.5;entryY=0;entryDx=0;entryDy=0;edgeStyle=orthogonalEdgeStyle;curved=1;endFill=0;startArrow=block;startFill=0;fontSize=12;exitPerimeter=0;" edge="1" parent="1" source="8FMlB73X5gDAxVy7XkIQ-38">
                    <mxGeometry width="50" height="50" relative="1" as="geometry">
                        <mxPoint x="290" y="2320" as="sourcePoint"/>
                        <mxPoint x="290" y="2360" as="targetPoint"/>
                    </mxGeometry>
                </mxCell>
                <mxCell id="65" value="" style="edgeLabel;html=1;align=center;verticalAlign=middle;resizable=0;points=[];fontSize=12;" vertex="1" connectable="0" parent="64">
                    <mxGeometry x="-0.04" relative="1" as="geometry">
                        <mxPoint as="offset"/>
                    </mxGeometry>
                </mxCell>
                <mxCell id="68" value="" style="endArrow=none;html=1;rounded=0;exitX=0.928;exitY=0.763;exitDx=0;exitDy=0;entryX=0.5;entryY=0;entryDx=0;entryDy=0;edgeStyle=orthogonalEdgeStyle;curved=1;endFill=0;startArrow=block;startFill=0;fontSize=12;exitPerimeter=0;" edge="1" parent="1" source="8FMlB73X5gDAxVy7XkIQ-38">
                    <mxGeometry width="50" height="50" relative="1" as="geometry">
                        <mxPoint x="510" y="2320" as="sourcePoint"/>
                        <mxPoint x="510" y="2360" as="targetPoint"/>
                    </mxGeometry>
                </mxCell>
                <mxCell id="69" value="" style="edgeLabel;html=1;align=center;verticalAlign=middle;resizable=0;points=[];fontSize=12;" vertex="1" connectable="0" parent="68">
                    <mxGeometry x="-0.04" relative="1" as="geometry">
                        <mxPoint as="offset"/>
                    </mxGeometry>
                </mxCell>
            </root>
        </mxGraphModel>
    </diagram>
</mxfile>